PathFileType	4	(X/Y/Z)	W:\OA_GaitRetraining\ACL OpenCap study\PS1\Edited\Trimmed_C90_L101.trc
DataRate	CameraRate	NumFrames	NumMarkers	Units	OrigDataRate	OrigDataStartFrame	OrigNumFrames
200.00	200.00	       4	46	mm	200.00	1	       147
Frame#	Time	C7			R_Shoulder			L_Shoulder			Sternum			R_humerus			R_elbow_med			R_elbow_lat			R_forearm			R_wrist_radius			R_wrist_ulna			L_humerus			L_elbow_med			L_elbow_lat			L_forearm			L_wrist_radius			L_wrist_ulna			r.ASIS			r.PSIS			L.ASIS			L.PSIS			r_thigh1			r_thigh2			r_thigh3			r_thigh4			r_thigh5			r_knee			r_shank_antsup			r_sh2			r_sh3			r_sh4			r_ankle			r_calc			r_5meta			r_toe			L_thigh1			L_thigh2			L_thigh3			L_thigh4			L_knee			L_shank_antsup			L_sh2			L_sh3			L_ankle			L_calc			L_5meta			L_toe			
		X1	Y1	Z1	X2	Y2	Z2	X3	Y3	Z3	X4	Y4	Z4	X5	Y5	Z5	X6	Y6	Z6	X7	Y7	Z7	X8	Y8	Z8	X9	Y9	Z9	X10	Y10	Z10	X11	Y11	Z11	X12	Y12	Z12	X13	Y13	Z13	X14	Y14	Z14	X15	Y15	Z15	X16	Y16	Z16	X17	Y17	Z17	X18	Y18	Z18	X19	Y19	Z19	X20	Y20	Z20	X21	Y21	Z21	X22	Y22	Z22	X23	Y23	Z23	X24	Y24	Z24	X25	Y25	Z25	X26	Y26	Z26	X27	Y27	Z27	X28	Y28	Z28	X29	Y29	Z29	X30	Y30	Z30	X31	Y31	Z31	X32	Y32	Z32	X33	Y33	Z33	X34	Y34	Z34	X35	Y35	Z35	X36	Y36	Z36	X37	Y37	Z37	X38	Y38	Z38	X39	Y39	Z39	X40	Y40	Z40	X41	Y41	Z41	X42	Y42	Z42	X43	Y43	Z43	X44	Y44	Z44	X45	Y45	Z45	X46	Y46	Z46	

1	0.000	-472.50647	138.39122	1286.70593	-386.62396	-4.51880	1237.25598	-380.68564	289.34888	1244.33362	-338.06531	134.28699	1197.58093	-535.39935	-134.16005	1085.01038	-625.63086	-89.56876	996.35809	-609.62354	-157.85277	1008.80890	-531.90283	-173.90378	874.17480	-536.92767	-173.65855	793.53503	-491.37308	-159.63000	811.74811	-456.01062	388.17465	1111.90662	-588.43127	377.58591	982.93164	-551.43201	442.31766	998.17059	-464.74655	426.62442	962.52393	-367.19867	349.06314	902.88269	-377.45694	394.60001	876.56549	-401.82968	4.27144	813.55524	-607.05170	83.68513	843.90680	-412.23755	250.86551	823.84570	-612.61670	155.97350	844.59686	-316.56143	-12.73962	741.07690	-224.91182	-10.08620	660.91589	-226.54372	-53.73771	624.75250	-369.48010	-83.22943	671.92126	-287.07504	-69.26791	595.90216	-154.83101	-39.75610	494.28207	-175.47453	-39.35140	396.88141	-233.67819	-19.40714	296.25146	-243.05823	-42.80717	434.23688	-307.63837	-18.63698	338.56741	-360.80392	3.99345	195.68787	-422.99673	67.49770	193.39177	-316.62286	-48.06314	102.79474	-256.16504	-0.47237	91.25250	-337.34570	274.22372	723.38751	-241.95567	249.69489	627.21527	-412.41257	328.95459	647.20477	-314.16943	295.16483	551.42963	-191.03581	255.35928	468.90295	-169.44130	241.47496	297.80563	-253.57350	275.24908	311.31201	-276.20035	241.36906	196.66893	-268.08829	232.09587	90.44064	-341.05893	196.66269	63.60643	-177.44107	248.21063	32.28883	-139.49370	181.57434	56.65655	
2	0.005	-453.90045	136.60992	1287.60498	-369.00330	-6.17185	1235.00732	-362.27551	287.32919	1243.81360	-320.96338	132.09772	1196.51672	-520.15009	-133.99481	1082.38696	-610.43823	-88.79381	994.05304	-596.81232	-154.93361	1005.46887	-518.77466	-174.87863	871.64648	-524.58649	-173.97337	791.13428	-479.03238	-160.75089	808.24915	-437.95703	387.06000	1111.86072	-567.44128	376.14810	979.53308	-531.37805	440.69516	995.51715	-444.06805	425.08386	959.45935	-347.84674	346.90347	899.88708	-356.55499	393.22446	874.03326	-384.84344	3.15992	811.13940	-590.07629	84.06701	842.69434	-394.42545	252.18674	822.61359	-594.17090	154.91811	845.48877	-299.73355	-13.26476	743.09320	-207.72435	-12.20378	663.42706	-209.32732	-55.35490	627.08893	-356.50647	-80.38801	673.70514	-268.63779	-71.11224	598.76727	-135.08731	-40.50095	497.60846	-152.29645	-41.38722	399.27585	-205.81485	-22.00669	296.10971	-221.30731	-45.01045	433.73004	-281.90829	-20.48334	335.51605	-327.65115	0.99586	187.71994	-389.98584	64.22533	182.06874	-278.25845	-50.62556	96.92609	-217.36092	-3.17260	89.88805	-319.54636	273.22812	722.61804	-224.80658	249.83133	625.67932	-394.90555	328.96252	647.17065	-297.75378	295.91971	550.83722	-172.01399	255.65974	466.66394	-157.49879	241.72719	295.01996	-241.39801	275.00009	312.04971	-269.38901	240.67331	196.65430	-266.12646	232.43842	91.77965	-339.64679	196.83257	65.97854	-176.48230	247.83398	31.96878	-139.55359	180.80830	55.57688	
3	0.010	-435.70602	134.88724	1288.61267	-351.41562	-7.72977	1233.01050	-343.63266	284.82748	1243.45154	-303.75751	129.77663	1195.54077	-503.88663	-134.38860	1080.80627	-595.06116	-88.17450	992.81732	-583.20526	-153.10962	1004.23895	-505.79089	-175.33636	869.84869	-511.84702	-173.92764	789.00281	-466.11737	-162.10107	806.06512	-419.72894	385.55981	1112.01880	-546.69989	374.31415	976.84534	-511.79977	438.85257	993.43921	-424.00363	423.52383	956.93103	-327.42273	345.65378	897.37201	-336.20966	391.85934	871.71735	-367.74536	1.62604	809.25403	-572.83331	82.93475	842.82349	-379.16379	256.29599	820.92871	-576.30463	153.40009	846.64929	-284.08173	-14.97578	744.42749	-191.51445	-13.52886	665.44348	-192.51239	-56.94247	629.65625	-341.74225	-79.53595	673.05835	-251.50571	-72.81057	600.35858	-114.25327	-42.90199	502.91382	-129.34489	-43.36265	401.27435	-177.94977	-24.43115	295.51526	-200.87631	-45.70431	431.98538	-255.99513	-21.98960	331.51605	-293.91278	-1.62864	179.48750	-355.96594	61.60054	170.65941	-238.80800	-52.47480	91.10311	-176.65884	-5.49543	89.41092	-300.69348	273.32620	720.41364	-206.85207	249.78354	622.68945	-377.59845	328.11545	646.06982	-280.75586	295.65204	548.83838	-156.76741	257.56485	461.62790	-147.63239	242.01801	291.14957	-230.11375	274.74457	311.79800	-262.96341	240.49619	199.24542	-263.85855	233.72052	95.34582	-337.55743	196.59033	69.12038	-175.77525	248.06270	31.70450	-138.46848	181.32272	55.09263	
4	0.015	-417.21375	132.77095	1289.51880	-334.14932	-9.04034	1231.28589	-324.83817	282.05051	1243.15015	-286.44223	127.32706	1194.58398	-487.76294	-134.94495	1079.36023	-579.51764	-87.61932	992.60577	-567.86877	-152.79277	1004.33289	-493.39954	-176.33788	868.28210	-498.80112	-173.92345	787.40790	-452.86005	-163.00139	804.35962	-401.46780	384.00351	1112.12463	-526.50439	372.07806	975.05548	-492.59207	436.82971	992.07623	-404.71515	421.76959	955.27924	-307.50385	344.40662	894.98907	-316.34814	390.41956	869.61078	-351.05637	-0.58817	808.01300	-555.99823	80.84220	842.96112	-361.59009	257.98203	819.70953	-558.69745	151.54121	846.60675	-269.93195	-17.09434	745.11456	-175.68658	-15.34364	667.70886	-176.20691	-58.50800	631.72705	-325.96103	-79.90952	671.73608	-234.90620	-73.63433	601.00745	-96.60814	-43.96518	506.62802	-106.78785	-45.46591	402.91296	-149.79851	-26.66481	294.76447	-178.23253	-46.38991	429.29547	-229.70061	-23.06408	326.77225	-259.29437	-4.40013	171.27339	-321.36063	58.98563	158.93922	-198.79320	-54.05151	86.12236	-137.22241	-6.25882	87.96475	-282.10214	273.37061	717.93878	-188.72446	250.47350	619.38635	-360.42374	326.49936	643.56244	-264.35547	294.53967	546.12653	-143.33214	259.40280	455.98428	-138.04004	242.45514	286.65433	-219.71294	274.31143	310.88974	-256.38052	239.76529	200.51091	-260.89780	233.60368	97.98829	-335.26651	195.82983	73.09225	-174.82065	248.47650	31.86006	-136.36206	181.72614	54.08153	
